<svg width="11" height="6" viewBox="0 0 11 6" fill="none" xmlns="http://www.w3.org/2000/svg">
<path d="M4.58845 3.47251C4.72545 3.60619 4.91124 3.68129 5.10496 3.68129C5.29868 3.68129 5.48447 3.60619 5.62147 3.47251L8.97186 0.203033C9.10965 0.0731396 9.29419 0.00126496 9.48574 0.00289001C9.67729 0.00451459 9.86053 0.0795092 9.99598 0.21172C10.1314 0.343931 10.2083 0.52278 10.2099 0.709748C10.2116 0.896716 10.138 1.07684 10.0049 1.21133L6.6545 4.47867C6.24349 4.87972 5.68612 5.10501 5.10496 5.10501C4.5238 5.10501 3.96643 4.87972 3.55543 4.47867L0.205041 1.20848C0.071961 1.07399 -0.00167605 0.893864 -1.18998e-05 0.706896C0.00165321 0.519929 0.0784869 0.341079 0.21394 0.208868C0.349393 0.0766566 0.532629 0.00166302 0.724182 3.7953e-05C0.915734 -0.00158664 1.10028 0.070288 1.23806 0.200181L4.58845 3.47251Z" fill="#202020"/>
</svg>
