<svg width="18" height="21" viewBox="0 0 18 21" fill="none" xmlns="http://www.w3.org/2000/svg">
<path d="M9.00033 6C8.34106 6 7.69659 6.1955 7.14843 6.56177C6.60026 6.92804 6.17302 7.44863 5.92073 8.05772C5.66844 8.66681 5.60243 9.33703 5.73104 9.98363C5.85966 10.6302 6.17713 11.2242 6.6433 11.6904C7.10948 12.1565 7.70342 12.474 8.35003 12.6026C8.99663 12.7312 9.66685 12.6652 10.2759 12.4129C10.885 12.1606 11.4056 11.7334 11.7719 11.1852C12.1382 10.6371 12.3337 9.9926 12.3337 9.33333C12.3337 8.44928 11.9825 7.60143 11.3574 6.97631C10.7322 6.35119 9.88438 6 9.00033 6ZM9.00033 11C8.67069 11 8.34846 10.9023 8.07438 10.7191C7.8003 10.536 7.58667 10.2757 7.46053 9.97114C7.33438 9.6666 7.30138 9.33149 7.36568 9.00818C7.42999 8.68488 7.58873 8.38791 7.82182 8.15482C8.0549 7.92173 8.35187 7.763 8.67518 7.69869C8.99848 7.63438 9.33359 7.66739 9.63813 7.79353C9.94268 7.91968 10.203 8.1333 10.3861 8.40738C10.5692 8.68147 10.667 9.0037 10.667 9.33333C10.667 9.77536 10.4914 10.1993 10.1788 10.5118C9.86628 10.8244 9.44235 11 9.00033 11Z" fill="white"/>
<path d="M9.00026 21C8.29855 21.0036 7.60618 20.839 6.98115 20.52C6.35611 20.2011 5.81659 19.737 5.40776 19.1667C2.23193 14.7858 0.621094 11.4925 0.621094 9.37749C0.621094 7.1552 1.5039 5.02392 3.07529 3.45252C4.64669 1.88112 6.77797 0.998322 9.00026 0.998322C11.2226 0.998322 13.3538 1.88112 14.9252 3.45252C16.4966 5.02392 17.3794 7.1552 17.3794 9.37749C17.3794 11.4925 15.7686 14.7858 12.5928 19.1667C12.1839 19.737 11.6444 20.2011 11.0194 20.52C10.3943 20.839 9.70197 21.0036 9.00026 21ZM9.00026 2.81749C7.26061 2.81947 5.59277 3.51143 4.36265 4.74155C3.13253 5.97167 2.44058 7.6395 2.43859 9.37916C2.43859 11.0542 4.01609 14.1517 6.87943 18.1008C7.1225 18.4356 7.4414 18.7081 7.81002 18.896C8.17864 19.0839 8.58651 19.1819 9.00026 19.1819C9.41401 19.1819 9.82188 19.0839 10.1905 18.896C10.5591 18.7081 10.878 18.4356 11.1211 18.1008C13.9844 14.1517 15.5619 11.0542 15.5619 9.37916C15.5599 7.6395 14.868 5.97167 13.6379 4.74155C12.4077 3.51143 10.7399 2.81947 9.00026 2.81749Z" fill="white"/>
</svg>
