<svg width="20" height="15" viewBox="0 0 20 15" fill="none" xmlns="http://www.w3.org/2000/svg">
<path d="M15.8333 0H4.16667C3.062 0.00132321 2.00296 0.440735 1.22185 1.22185C0.440735 2.00296 0.00132321 3.062 0 4.16667L0 10C0.00132321 11.1047 0.440735 12.1637 1.22185 12.9448C2.00296 13.7259 3.062 14.1653 4.16667 14.1667H15.8333C16.938 14.1653 17.997 13.7259 18.7782 12.9448C19.5593 12.1637 19.9987 11.1047 20 10V4.16667C19.9987 3.062 19.5593 2.00296 18.7782 1.22185C17.997 0.440735 16.938 0.00132321 15.8333 0ZM4.16667 1.66667H15.8333C16.3323 1.66765 16.8196 1.81793 17.2325 2.09817C17.6453 2.37841 17.9649 2.77579 18.15 3.23917L11.7683 7.955C11.2987 8.42276 10.6628 8.68539 10 8.68539C9.33715 8.68539 8.70131 8.42276 8.23167 7.955L1.85 3.23917C2.03512 2.77579 2.35468 2.37841 2.76754 2.09817C3.1804 1.81793 3.66768 1.66765 4.16667 1.66667ZM15.8333 12.5H4.16667C3.50363 12.5 2.86774 12.2366 2.3989 11.7678C1.93006 11.2989 1.66667 10.663 1.66667 10V5.41667L7.05333 9.13333C7.83552 9.91355 8.89521 10.3517 10 10.3517C11.1048 10.3517 12.1645 9.91355 12.9467 9.13333L18.3333 5.41667V10C18.3333 10.663 18.0699 11.2989 17.6011 11.7678C17.1323 12.2366 16.4964 12.5 15.8333 12.5Z" fill="#BCBCBC"/>
</svg>
