<svg width="20" height="20" viewBox="0 0 20 20" fill="none" xmlns="http://www.w3.org/2000/svg">
<path d="M10 0C8.02219 0 6.08879 0.58649 4.4443 1.6853C2.79981 2.78412 1.51809 4.3459 0.761209 6.17316C0.00433284 8.00043 -0.1937 10.0111 0.192152 11.9509C0.578004 13.8907 1.53041 15.6725 2.92894 17.0711C4.32746 18.4696 6.10929 19.422 8.0491 19.8078C9.98891 20.1937 11.9996 19.9957 13.8268 19.2388C15.6541 18.4819 17.2159 17.2002 18.3147 15.5557C19.4135 13.9112 20 11.9778 20 10C19.9971 7.34871 18.9426 4.80684 17.0679 2.9321C15.1932 1.05736 12.6513 0.00286757 10 0ZM10 18.3333C8.35183 18.3333 6.74066 17.8446 5.37025 16.9289C3.99984 16.0132 2.93174 14.7117 2.30101 13.189C1.67028 11.6663 1.50525 9.99075 1.82679 8.37425C2.14834 6.75774 2.94201 5.27288 4.10745 4.10744C5.27288 2.94201 6.75774 2.14833 8.37425 1.82679C9.99076 1.50525 11.6663 1.67027 13.189 2.301C14.7117 2.93173 16.0132 3.99984 16.9289 5.37025C17.8446 6.74066 18.3333 8.35182 18.3333 10C18.3309 12.2094 17.4522 14.3276 15.8899 15.8899C14.3276 17.4522 12.2094 18.3309 10 18.3333Z" fill="white"/>
<path d="M10.0009 4.16664C9.77992 4.16664 9.56795 4.25443 9.41167 4.41072C9.25539 4.567 9.1676 4.77896 9.1676 4.99997V11.6666C9.1676 11.8876 9.25539 12.0996 9.41167 12.2559C9.56795 12.4122 9.77992 12.5 10.0009 12.5C10.2219 12.5 10.4339 12.4122 10.5902 12.2559C10.7465 12.0996 10.8343 11.8876 10.8343 11.6666V4.99997C10.8343 4.77896 10.7465 4.567 10.5902 4.41072C10.4339 4.25443 10.2219 4.16664 10.0009 4.16664Z" fill="white"/>
<path d="M10.8343 15C10.8343 14.5397 10.4612 14.1666 10.0009 14.1666C9.54069 14.1666 9.1676 14.5397 9.1676 15C9.1676 15.4602 9.54069 15.8333 10.0009 15.8333C10.4612 15.8333 10.8343 15.4602 10.8343 15Z" fill="white"/>
</svg>
