<svg width="17" height="21" viewBox="0 0 17 21" fill="none" xmlns="http://www.w3.org/2000/svg">
<path d="M8.38021 5.00168C7.72094 5.00168 7.07647 5.19717 6.52831 5.56345C5.98015 5.92972 5.5529 6.45031 5.30061 7.0594C5.04832 7.66849 4.98231 8.33871 5.11093 8.98531C5.23954 9.63192 5.55701 10.2259 6.02319 10.692C6.48936 11.1582 7.08331 11.4757 7.72991 11.6043C8.37651 11.7329 9.04673 11.6669 9.65582 11.4146C10.2649 11.1623 10.7855 10.7351 11.1518 10.1869C11.518 9.63875 11.7135 8.99428 11.7135 8.33501C11.7135 7.45096 11.3624 6.60311 10.7372 5.97799C10.1121 5.35287 9.26427 5.00168 8.38021 5.00168ZM8.38021 10.0017C8.05057 10.0017 7.72834 9.90393 7.45426 9.7208C7.18018 9.53766 6.96656 9.27736 6.84041 8.97282C6.71426 8.66827 6.68126 8.33316 6.74557 8.00986C6.80988 7.68656 6.96861 7.38959 7.2017 7.1565C7.43479 6.92341 7.73176 6.76468 8.05506 6.70037C8.37836 6.63606 8.71347 6.66907 9.01802 6.79521C9.32256 6.92136 9.58286 7.13498 9.76599 7.40906C9.94913 7.68314 10.0469 8.00538 10.0469 8.33501C10.0469 8.77704 9.87128 9.20096 9.55872 9.51352C9.24616 9.82608 8.82224 10.0017 8.38021 10.0017Z" fill="#FF5F46"/>
<path d="M8.37917 20.0017C7.67745 20.0053 6.98509 19.8407 6.36005 19.5217C5.73502 19.2027 5.1955 18.7387 4.78667 18.1683C1.61083 13.7875 0 10.4942 0 8.37917C0 6.15687 0.882802 4.0256 2.4542 2.4542C4.0256 0.882803 6.15687 0 8.37917 0C10.6015 0 12.7327 0.882803 14.3041 2.4542C15.8755 4.0256 16.7583 6.15687 16.7583 8.37917C16.7583 10.4942 15.1475 13.7875 11.9717 18.1683C11.5628 18.7387 11.0233 19.2027 10.3983 19.5217C9.77324 19.8407 9.08088 20.0053 8.37917 20.0017ZM8.37917 1.81917C6.63951 1.82115 4.97168 2.51311 3.74156 3.74323C2.51144 4.97335 1.81948 6.64118 1.8175 8.38083C1.8175 10.0558 3.395 13.1533 6.25833 17.1025C6.50141 17.4373 6.82031 17.7098 7.18893 17.8977C7.55755 18.0856 7.96542 18.1836 8.37917 18.1836C8.79291 18.1836 9.20078 18.0856 9.5694 17.8977C9.93802 17.7098 10.2569 17.4373 10.5 17.1025C13.3633 13.1533 14.9408 10.0558 14.9408 8.38083C14.9388 6.64118 14.2469 4.97335 13.0168 3.74323C11.7867 2.51311 10.1188 1.82115 8.37917 1.81917Z" fill="#FF5F46"/>
</svg>
