<svg width="71" height="79" viewBox="0 0 71 79" fill="none" xmlns="http://www.w3.org/2000/svg">
<path fill-rule="evenodd" clip-rule="evenodd" d="M19.7757 15.2624C20.0479 15.1927 20.8116 15.2113 21.6888 15.8429C22.1476 16.1733 22.4553 16.6705 22.7641 17.1694C23.193 17.8623 23.624 18.5586 24.4649 18.8152C25.3068 19.0719 27.9264 18.5501 30.158 18.1056C31.761 17.7862 33.1638 17.5067 33.5636 17.5845C34.3288 17.733 35.5466 18.6836 36.0599 19.1403C36.0055 19.357 35.9292 19.8137 36.0599 19.9066C36.1245 19.9525 36.2254 19.875 36.3471 19.7818C36.5331 19.6391 36.7673 19.4594 36.9931 19.6279C37.2152 19.7938 37.0242 20.4778 36.8675 21.0387C36.761 21.4204 36.6703 21.7449 36.7364 21.8108C36.8234 21.8973 37.1484 21.5823 37.4791 21.2618C37.7695 20.9803 38.0644 20.6947 38.2062 20.6728C38.5096 20.6265 38.5794 20.8587 38.6029 21.0212C38.6127 21.0901 38.518 21.2713 38.4161 21.4662C38.2774 21.7317 38.1255 22.0224 38.2062 22.0894C38.2858 22.1555 38.577 21.9434 38.8388 21.7526C39.0373 21.6081 39.2191 21.4756 39.2794 21.4857C39.4194 21.5089 39.9326 21.9965 39.9559 22.1822C39.9642 22.248 39.8821 22.47 39.784 22.736C39.6042 23.2229 39.3701 23.857 39.536 23.9471C39.6759 24.0231 40.0585 23.6573 40.4231 23.3088C40.7271 23.0182 41.0185 22.7396 41.1457 22.7396C41.4258 22.7396 41.4724 22.9021 41.4724 23.1111C41.4724 23.1835 41.4192 23.4064 41.3545 23.6773C41.2325 24.1887 41.0695 24.8715 41.1457 25.0385C41.2624 25.2939 42.0323 24.7599 42.2889 24.458C42.4942 24.2165 42.6389 23.5988 42.6855 23.3201H43.7354C43.7198 23.5601 43.6373 24.2907 43.4321 25.2939C43.2957 25.9601 43.1265 26.4166 43.0118 26.7259C42.9105 26.999 42.8518 27.1574 42.8955 27.2446C42.9888 27.4303 43.8287 26.989 44.6452 25.9209C45.067 25.3692 45.2148 24.8608 45.3204 24.4983C45.4192 24.1588 45.4807 23.9471 45.695 23.9471C45.9651 23.9471 46.0187 24.2144 46.0932 24.5859C46.1409 24.8242 46.1973 25.1056 46.3249 25.3868C46.6516 26.1066 46.9082 26.5711 47.0949 26.5014C47.1538 26.4795 47.2546 26.3392 47.3804 26.1644C47.653 25.7855 48.0429 25.2438 48.378 25.3868C48.8679 25.5958 48.8912 27.2213 48.728 27.5697C48.5646 27.9179 49.9877 27.2909 50.4544 26.0603C50.8276 25.0757 50.8587 24.2413 50.8276 23.9471C50.9598 23.831 51.2568 23.6127 51.3875 23.6685C51.5181 23.7241 51.5041 25.0075 51.4808 25.6423C51.5274 25.6655 51.6442 25.6794 51.7375 25.5493C51.8541 25.3868 51.6675 26.4782 51.4808 26.7104C51.2942 26.9427 52.5773 26.5711 53.0206 25.5493C53.3752 24.732 53.3239 24.0012 53.2538 23.7381C53.4016 23.6685 53.7252 23.5709 53.8372 23.7381C53.9771 23.9471 54.1637 24.5044 54.2337 25.3868C54.2689 25.8299 54.2393 26.3082 54.2159 26.6863C54.1927 27.0611 54.1757 27.3376 54.2337 27.3838C54.3503 27.4768 55.4703 26.5479 55.6569 25.5493C55.8061 24.7506 55.7191 24.009 55.6569 23.7381H55.9368C55.999 23.831 56.1187 24.0539 56.1002 24.2026C56.0767 24.3883 56.3101 24.1561 56.3801 23.9471L56.4734 23.6685H56.7067C56.7455 23.8929 56.7721 24.4719 56.5667 24.992C56.6678 25.0075 56.954 24.9224 57.29 24.458C57.5393 24.1133 57.6241 23.9861 57.6417 23.9529C57.6649 24.026 57.6944 24.1971 57.6398 24.3418C57.5699 24.5277 58.0831 24.3883 58.2464 23.7381C58.3771 23.2179 58.3009 22.9486 58.2464 22.8789C58.9308 22.3061 60.2015 21.0165 59.8095 20.4406C59.3196 19.7208 57.4066 19.8369 56.8233 19.9763C56.7329 19.9979 56.5469 20.0573 56.2807 20.1424C54.8281 20.6066 50.9881 21.834 47.2815 21.834C43.2031 21.834 41.4848 20.9305 39.8946 20.0942C39.7747 20.0312 39.6554 19.9685 39.536 19.9066C38.1735 19.2006 36.4953 17.6464 35.8266 16.9575C36.7909 17.7547 39.634 19.5861 43.1055 20.4406C47.2094 21.4509 49.6022 20.9449 52.1982 20.396C52.3471 20.3645 52.4967 20.3329 52.6474 20.3014C53.9437 20.0302 54.8889 19.7237 55.652 19.4764C56.523 19.1939 57.1565 18.9886 57.8032 19.0009C58.7737 19.0195 59.5451 19.2873 59.8095 19.419C59.8329 17.2594 59.5389 12.578 58.1764 11.1289C57.5793 10.4973 56.3723 10.3394 55.8435 10.3394C55.2292 9.73563 53.8559 8.45846 53.2773 8.1798C52.6987 7.90116 52.1652 7.92437 51.9707 7.97081C51.5509 7.56832 50.5477 6.67506 49.8943 6.3221C49.2411 5.96914 48.4246 5.83445 48.098 5.81123C47.7558 5.43968 46.9035 4.68266 46.2316 4.62693C45.8317 4.59377 45.3895 4.78172 44.9578 4.96517C44.483 5.167 44.0209 5.3634 43.6421 5.25392C43.235 5.13629 43.0496 4.76856 42.8738 4.41985C42.7373 4.14898 42.6066 3.88957 42.3822 3.76775C42.1636 3.64904 41.5428 3.7284 40.7488 3.82989C39.6788 3.96664 38.2946 4.14356 37.1564 3.9303C35.1734 3.55876 33.4702 2.72279 32.2571 1.84038C31.6538 1.40146 31.1831 0.910852 30.8135 0.525697C30.4402 0.136516 30.0328 0.0193178 29.8334 0.00764668C28.3453 -0.0794599 27.8072 0.64821 26.9986 1.11264C26.213 1.08941 24.605 1.2134 23.8585 1.49206C23.4452 1.64627 23.2653 1.85513 23.0453 2.11054C22.7683 2.43198 22.4278 2.8272 21.4788 3.2801C20.9715 3.52221 20.549 3.70868 20.1831 3.87021C19.3206 4.25092 18.772 4.49305 18.166 4.99848C17.7421 5.35196 17.4139 6.13658 16.9133 7.33308C16.3945 8.57324 15.6906 10.2559 14.5032 12.3596C13.6266 13.9127 12.7698 15.3608 12.0268 16.6167C10.7924 18.7031 9.87205 20.2585 9.69728 20.8819C9.53334 21.4666 9.62541 22.0354 9.71113 22.565C9.77179 22.9398 9.82927 23.2948 9.7906 23.622C9.77396 23.7628 9.74545 23.9515 9.71142 24.1769C9.55461 25.2152 9.28062 27.0293 9.51064 28.4984C9.7906 30.2866 12.5202 36.4169 13.3367 36.6259C13.7857 36.7409 15.5393 36.5679 17.1978 36.4044C18.5559 36.2706 19.8502 36.1429 20.3123 36.1848C20.7911 36.2281 21.2953 36.3775 21.7917 36.5246C22.3595 36.6929 22.9172 36.8582 23.4152 36.8582C24.3483 36.8582 24.9316 36.1383 24.7683 35.9758C24.7349 35.9427 24.6404 35.8839 24.4934 35.7926C23.9194 35.4364 22.5457 34.5841 20.8956 32.8176C19.6591 31.4941 18.7414 29.466 18.6559 28.9397C18.0649 29.5667 16.5282 30.7928 15.1098 30.6813C13.9114 30.5871 13.6082 30.0686 13.4008 29.7137C13.3013 29.5435 13.2238 29.411 13.0801 29.3808C12.9279 29.349 12.7675 29.3937 12.5951 29.4418C12.2652 29.5338 11.8913 29.6381 11.447 29.2416C10.9058 28.7586 11.1126 27.3374 11.2837 26.6873C11.2837 27.2058 11.4377 28.2941 12.0536 28.4984C12.4624 28.6341 12.7397 28.5668 12.9937 28.505C13.218 28.4506 13.4241 28.4005 13.6867 28.4984C13.9418 28.5938 14.1389 28.824 14.333 29.0509C14.5647 29.3218 14.7923 29.5878 15.1098 29.6131C15.5764 29.6503 17.365 28.4211 18.236 27.7322C18.0727 27.4458 17.83 26.4503 17.6994 25.5958C17.5687 24.7413 17.6916 23.6065 17.7927 23.1111C17.8291 23.2574 17.8678 23.4148 17.9088 23.5814C18.3317 25.3012 19.0003 28.0201 19.9624 30.0311C21.0632 32.3322 22.9126 33.736 24.3205 34.8047C24.6176 35.0301 24.895 35.2408 25.1416 35.4416C25.7326 35.4339 27.4092 35.5903 29.3875 36.2777C31.2349 36.9194 34.0977 38.5331 36.1086 39.6667C36.7897 40.0505 37.3731 40.3795 37.7863 40.5968C39.4194 41.456 43.9697 43.5917 45.1351 43.5226C46.7215 43.4286 48.0022 42.0665 49.0389 40.9639C49.2829 40.7044 49.5134 40.4593 49.7311 40.2484C48.7668 40.1556 46.0963 39.5426 43.1288 37.8334C40.819 36.5032 37.3153 32.8681 34.724 30.1797C33.1538 28.5505 31.9186 27.269 31.4872 27.0587C30.7628 26.7056 29.092 26.7067 27.7278 26.7077C26.9394 26.7083 26.2533 26.7088 25.9114 26.6408C24.9782 26.455 24.0451 25.7352 23.5551 24.6437C23.3379 24.1598 22.9918 23.0377 22.609 21.7964C22.1284 20.238 21.5898 18.4917 21.1755 17.5845C20.6803 16.5 20.2512 15.927 19.9958 15.5861C19.8903 15.4451 19.8144 15.3438 19.7757 15.2624ZM22.6219 18.4901C23.0808 20.2085 24.1337 24.0028 25.0483 24.9688C25.6925 25.6494 27.2335 25.6882 28.7147 25.7255C29.8617 25.7544 30.9726 25.7824 31.6039 26.1066C32.2276 26.4271 33.4298 27.6896 34.9446 29.2805C36.9426 31.3789 39.4848 34.0486 41.9622 35.8829C44.7851 37.9728 48.2147 39.4125 50.1277 39.6447C50.2677 39.4202 50.5057 38.8087 50.3376 38.1585C50.1697 37.5083 49.5522 37.0981 49.2646 36.9742C49.2023 36.8892 49.0545 36.7699 48.9612 36.9742C48.8679 37.1787 48.6268 37.2297 48.5179 37.2297C48.5179 37.1214 48.4759 36.8999 48.308 36.8813C48.14 36.8627 47.787 37.3226 47.6315 37.5548C47.608 37.6012 47.5381 37.6802 47.4448 37.6245C47.3965 37.5956 47.3443 37.396 47.2847 37.1685C47.2004 36.846 47.1013 36.4674 46.9781 36.4402C46.863 36.4147 46.6075 36.7943 46.381 37.1309C46.1945 37.408 46.0277 37.6559 45.975 37.6245C45.9036 37.5817 45.9021 37.051 45.9011 36.6356C45.9003 36.3729 45.8997 36.1563 45.8816 36.1383C45.8638 36.1204 45.7705 36.2529 45.6544 36.4175C45.4676 36.6825 45.2214 37.0315 45.1351 36.9742C45.0626 36.9261 45.0027 36.4856 44.9455 36.0656C44.8923 35.6747 44.8415 35.3015 44.7851 35.2791C44.7291 35.2568 44.6406 35.4171 44.5483 35.5845C44.4486 35.7649 44.3446 35.9534 44.272 35.9293C44.1949 35.9037 44.1956 35.3434 44.1962 34.8332C44.1967 34.4165 44.1972 34.0333 44.1552 34.0019C44.1104 33.9684 43.8977 34.2472 43.6763 34.5374C43.4379 34.85 43.1893 35.1759 43.1288 35.1397C43.0777 35.1092 43.0356 34.7716 42.9887 34.3958C42.9284 33.9131 42.8604 33.3677 42.7555 33.3285C42.6777 33.2995 42.5231 33.5485 42.3437 33.8373C42.0927 34.2416 41.7932 34.7238 41.589 34.6289C41.3746 34.5293 41.309 33.8189 41.2582 33.2679C41.2262 32.92 41.1999 32.6356 41.1457 32.6087C41.0851 32.5786 40.9374 32.7483 40.7758 32.9336C40.564 33.1769 40.3285 33.4471 40.2358 33.3285C40.1429 33.2095 40.1406 32.8423 40.1388 32.5307C40.1374 32.295 40.1362 32.0913 40.0959 32.0514C40.0539 32.0095 39.9362 32.1373 39.8087 32.2754C39.6533 32.4442 39.4834 32.6283 39.4194 32.539C39.3604 32.4567 39.3909 31.9821 39.4204 31.5241C39.4492 31.0771 39.477 30.646 39.4194 30.6116C39.3711 30.5829 39.2072 30.816 39.0185 31.0845C38.7506 31.4658 38.4323 31.9185 38.3228 31.796C38.2198 31.6804 38.3019 30.9619 38.3762 30.311C38.4365 29.784 38.4917 29.3015 38.4395 29.2183C38.3756 29.1165 38.2697 29.196 38.1715 29.2695C38.0907 29.3303 38.0151 29.3869 37.973 29.3345C37.9282 29.2788 37.953 28.9997 37.9783 28.7162C38.0057 28.4074 38.0338 28.0936 37.973 28.0573C37.9178 28.0243 37.6176 28.3338 37.3042 28.6571C36.9543 29.0178 36.5879 29.3957 36.5265 29.3345C36.4607 29.269 36.4765 28.9528 36.4902 28.6769C36.501 28.4631 36.5103 28.2734 36.4798 28.243C36.4502 28.2136 36.3252 28.271 36.1783 28.3385C35.9768 28.431 35.7344 28.5423 35.6399 28.4753C35.5523 28.413 35.5923 28.1903 35.6301 27.9793C35.6629 27.7971 35.694 27.6235 35.6399 27.5697C35.5846 27.5146 35.435 27.543 35.2755 27.5734C35.0985 27.607 34.9094 27.6429 34.8234 27.5697C34.7312 27.4909 34.7728 27.1386 34.8098 26.8256C34.8383 26.5842 34.864 26.3663 34.8234 26.3157C34.7773 26.2583 34.6344 26.3483 34.4931 26.4373C34.3485 26.5284 34.2056 26.6183 34.1702 26.5479C34.1378 26.4834 34.1354 26.2299 34.1329 25.9669C34.1299 25.6616 34.1269 25.3439 34.0769 25.2939C34.0447 25.2619 33.9904 25.3374 33.912 25.4463C33.763 25.6535 33.5268 25.9818 33.1903 25.9209C32.9152 25.8712 32.801 25.7414 32.6824 25.6065C32.5797 25.4898 32.4737 25.3694 32.2571 25.2939C31.8839 25.1638 31.355 25.2397 31.1373 25.2939C31.0285 24.9843 30.7733 24.0399 30.624 22.7396C30.4374 21.1141 30.484 20.2317 30.554 20.1388C30.6101 20.0644 32.5838 18.9932 33.5636 18.4669C31.4562 19.1016 27.5212 20.2317 24.745 19.9066C23.8965 19.8072 22.8086 18.8384 22.6219 18.4901ZM31.1373 23.1111C31.1684 23.2892 31.254 23.7334 31.3473 24.0864C31.4406 24.4394 31.5572 24.6979 31.6039 24.7831C31.775 24.7599 32.1684 24.7413 32.3737 24.8528C32.5791 24.9642 32.9571 25.2707 33.1203 25.4101C33.3688 25.3512 33.5536 25.18 33.7047 25.0401C33.8515 24.9042 33.9665 24.7978 34.0769 24.8528C34.4037 25.0153 34.443 25.3631 34.4754 25.6494C34.487 25.7514 34.4976 25.8456 34.5201 25.9209C34.6679 25.8899 35.0846 25.8048 35.1966 25.9906C35.3087 26.1763 35.3367 26.8575 35.3367 27.1749C35.5 27.1594 35.8405 27.1516 35.8966 27.2446C35.9525 27.3374 35.982 27.6857 35.9899 27.8483C36.2154 27.7786 36.6851 27.6811 36.7597 27.8483C36.8345 28.0155 36.9153 28.1812 36.9464 28.243C37.2263 27.9798 37.8516 27.4768 38.1129 27.5697C38.3741 27.6625 38.4395 28.4134 38.4395 28.7772C38.494 28.7307 38.6308 28.6657 38.7428 28.7772C38.82 28.8539 38.7907 29.4611 38.7652 29.9932C38.7536 30.2331 38.7428 30.4577 38.7428 30.6116C38.8517 30.48 39.2748 30.0357 39.536 30.1472C39.7973 30.2587 39.816 31.1845 39.7927 31.6334C39.8937 31.5792 40.1379 31.5033 40.3059 31.6334C40.4738 31.7633 40.5469 32.1365 40.5625 32.3068C40.8192 31.6334 40.8192 30.1844 40.1659 28.3824C39.8727 27.5734 39.4205 27.1422 38.9698 26.7122C38.6675 26.4238 38.3658 26.136 38.1129 25.7352C37.8657 25.3434 37.7608 25.0666 37.6715 24.8312C37.5332 24.4667 37.4325 24.2013 36.8998 23.7613C36.1335 23.1285 34.9004 23.414 34.0119 23.6197C33.629 23.7085 33.3101 23.7823 33.1203 23.7613C32.7331 23.7184 32.3893 23.2892 32.2571 23.1111H31.1373ZM41.1457 31.2153C40.9031 30.1565 40.8113 29.1022 40.9125 28.7075C41.1396 28.7527 41.1701 29.0034 41.1955 29.212C41.2092 29.3246 41.2214 29.4249 41.2624 29.4738C41.2964 29.5144 41.4398 29.3378 41.5984 29.1425C41.7948 28.9009 42.0144 28.6304 42.079 28.7075C42.1723 28.8189 42.1179 29.5125 42.079 29.8453C42.1489 29.8066 42.3076 29.7524 42.3822 29.8453C42.4241 29.8974 42.4285 30.1551 42.4331 30.434C42.4388 30.7767 42.445 31.1514 42.5223 31.2153C42.5915 31.2729 42.7409 31.04 42.8939 30.8015C43.0499 30.5583 43.2096 30.3092 43.2921 30.3562C43.3768 30.4043 43.3548 30.7898 43.3336 31.1626C43.3138 31.5088 43.2947 31.8441 43.3621 31.8888C43.4362 31.938 43.5368 31.8893 43.6321 31.8432C43.7167 31.8022 43.7972 31.7632 43.852 31.796C43.9104 31.8308 43.9161 32.128 43.922 32.4305C43.9279 32.7318 43.9337 33.0384 43.992 33.0963C44.0466 33.1506 44.239 32.9813 44.4451 32.8C44.6795 32.5937 44.9315 32.372 45.0185 32.4461C45.0928 32.5095 45.1236 32.7985 45.157 33.1123C45.1973 33.4886 45.2413 33.9006 45.3685 34.0019C45.4902 34.0989 45.6756 33.7909 45.8582 33.4874C46.0253 33.2096 46.1901 32.9358 46.3016 32.9801C46.4155 33.0255 46.4182 33.3088 46.421 33.6004C46.4238 33.9062 46.427 34.2211 46.5583 34.2806C46.6988 34.3442 47.0074 34.0177 47.2808 33.7283C47.5064 33.4895 47.7081 33.276 47.7714 33.3285C47.8834 33.4214 47.8181 34.4974 47.7714 35.0237C47.857 34.9927 48.0513 34.9726 48.1446 35.1397C48.1992 35.2374 48.1722 35.3199 48.1494 35.3895C48.1233 35.4689 48.1028 35.5315 48.2147 35.581C48.3128 35.6244 48.3856 35.6272 48.4519 35.6298C48.5272 35.6327 48.5943 35.6353 48.6812 35.697C48.7485 35.7449 48.7722 35.8085 48.7916 35.8602C48.8192 35.9341 48.8377 35.9839 48.9612 35.9293C49.1291 35.855 49.28 35.8984 49.3344 35.9293C49.3112 36.0531 49.2318 36.3101 49.1012 36.3473C49.0237 36.3693 49.0145 36.4279 49.0038 36.4958C48.992 36.5711 48.9783 36.6578 48.8679 36.7188C48.6999 36.8117 48.6268 36.7575 48.6112 36.7188C48.6035 36.6491 48.5507 36.4959 48.4013 36.4402C48.252 36.3844 47.9191 36.4634 47.7714 36.5099C47.6625 36.3008 47.3748 35.8829 47.0949 35.8829C46.8149 35.8829 46.4494 36.0531 46.3016 36.1383C46.2939 35.9913 46.2363 35.6739 46.0683 35.581C45.9003 35.4881 45.6251 35.6197 45.5084 35.697C45.384 35.3719 45.1118 34.759 45.0185 34.6289C44.9252 34.4988 44.8241 34.505 44.7851 34.5592C44.7585 34.4603 44.7389 34.3224 44.7185 34.1777C44.6731 33.8583 44.6232 33.5062 44.4819 33.4679C44.2766 33.4121 43.7042 33.8239 43.5487 34.0019C43.4866 33.6071 43.3014 32.7898 43.0587 32.6784C42.8613 32.5876 42.5317 32.8242 42.2944 32.9946C42.2402 33.0336 42.1909 33.069 42.1489 33.0963C41.9389 32.9493 41.3884 32.2743 41.1457 31.2153ZM28.0382 1.8937C28.041 2.11757 28.044 2.35143 28.1977 2.56024C28.3583 2.77811 28.6557 2.7416 28.8959 2.71211C29.0398 2.69445 29.1631 2.67931 29.2243 2.72279C29.2892 2.76897 29.3616 2.88497 29.4501 3.02694C29.5841 3.24185 29.7553 3.5163 29.9941 3.69808C30.3115 3.93959 30.9351 4.29411 31.2072 4.44117C31.1427 4.45653 31.0716 4.47251 30.9954 4.48959C30.4577 4.61038 29.6738 4.7865 29.2243 5.18425C28.2794 6.02022 28.1044 6.67041 27.9878 7.32062C28.5011 6.64719 29.5322 5.68583 30.2041 5.46291C31.044 5.18425 31.324 5.23069 31.6505 5.46291C31.7275 5.5176 31.8976 5.7191 32.1307 5.99524C32.8872 6.89165 34.3077 8.57457 35.36 8.57457C36.1669 8.57457 36.3805 8.42294 36.5837 8.27875C36.7271 8.17697 36.8651 8.07891 37.203 8.04048C37.4352 8.01407 37.5469 8.10136 37.6548 8.18568C37.7745 8.27927 37.8896 8.36921 38.1596 8.29591C38.3904 8.23324 38.5269 8.14238 38.6454 8.06348C38.7902 7.96698 38.9084 7.88837 39.1393 7.90116C39.3444 7.91249 39.4104 8.00689 39.4759 8.10052C39.5445 8.19863 39.6125 8.29591 39.8393 8.29591C40.0516 8.29591 40.1621 8.21607 40.2634 8.14303C40.3735 8.06351 40.4724 7.99206 40.6791 8.04048C40.8458 8.0795 40.9259 8.17178 41.0165 8.27603C41.1415 8.41994 41.2862 8.58666 41.7057 8.66746C42.0896 8.74141 42.2368 8.68452 42.3812 8.62874C42.5088 8.57943 42.6341 8.53099 42.9188 8.57457C43.2548 8.62602 43.3546 8.74872 43.4481 8.86374C43.5234 8.95636 43.5947 9.044 43.782 9.08544C43.9593 9.12463 44.1987 9.11835 44.4428 9.11194C44.7769 9.10316 45.1195 9.09417 45.3217 9.20154C45.4817 9.28647 45.6515 9.39567 45.8555 9.5269C46.0977 9.68274 46.3883 9.86966 46.7682 10.084C47.3281 10.3998 47.9659 10.5716 48.2147 10.6181C47.7792 10.1304 46.7262 9.05758 45.9984 8.66746C45.4318 8.36377 45.236 8.28523 45.0564 8.2131C44.9475 8.16941 44.8446 8.12807 44.6685 8.04048C44.4387 7.92608 44.3786 7.82857 44.3239 7.73966C44.2676 7.6481 44.2169 7.56564 43.992 7.48316C43.5695 7.32824 42.2569 7.32098 42.1953 7.32063C42.2654 7.32063 42.0323 6.85619 41.2857 6.53109C40.6885 6.27102 39.8393 6.31436 39.4893 6.36855C39.4427 6.14407 39.2141 5.68119 38.6728 5.62546C38.1316 5.56973 37.5297 5.86541 37.2963 6.02022C37.1175 5.83445 36.5918 5.46291 35.9199 5.46291C35.248 5.46291 34.6445 5.75705 34.4268 5.90412C33.3925 4.68113 31.1793 2.13296 30.6007 1.72427C30.0222 1.31558 28.794 0.948061 27.9878 1.46884C28.0345 1.59905 28.0364 1.74413 28.0382 1.8937ZM19.939 11.6862C20.0557 11.6553 20.5456 11.1754 20.5456 10.4787C20.5456 10.3893 20.5309 10.1962 20.5111 9.93438C20.4245 8.79503 20.2391 6.3546 20.7322 5.48613C21.1715 4.71266 22.8094 4.08529 23.9278 3.65693C24.3541 3.49372 24.7046 3.35939 24.8849 3.25688C25.4076 2.95965 25.8181 2.73054 25.9581 2.65313C25.9037 2.85437 25.5942 3.4055 24.7916 3.99996C24.4921 4.22186 24.1654 4.42099 23.8366 4.62145C23.0643 5.09228 22.2799 5.57049 21.8054 6.36855C21.5617 6.77847 21.5747 7.60823 21.5881 8.467C21.6025 9.38937 21.6175 10.3452 21.3155 10.8503C20.8489 11.6305 20.2034 11.7327 19.939 11.6862ZM31.6505 9.20154C30.0641 8.94147 29.6364 8.08692 29.6209 7.69215C29.7375 6.80975 30.5727 6.58682 31.4872 6.80975C32.4018 7.03266 32.9571 8.1411 33.167 8.66746C33.2915 8.95385 33.237 9.46163 31.6505 9.20154ZM51.4808 12.081C51.5041 12.3829 52.1808 13.3117 53.0672 13.7761C53.2665 13.8805 53.4741 13.9826 53.6797 14.0836C54.3881 14.432 55.0718 14.7683 55.3069 15.1462C55.3711 15.2495 55.4249 15.3391 55.471 15.4162C55.6429 15.7031 55.7098 15.8147 55.8201 15.7964C55.9601 15.7732 55.8901 14.496 54.9337 13.2885C54.1684 12.3225 52.313 12.081 51.4808 12.081ZM56.7534 12.8937C56.0069 12.1506 55.5636 11.3843 55.6335 11.0593C56.1856 11.1057 57.4159 11.5005 57.9199 12.708C58.4237 13.9155 58.1298 14.7746 57.9199 15.0533C57.9199 14.914 57.8919 14.561 57.7799 14.2638C57.6398 13.8922 57.4999 13.6368 56.7534 12.8937ZM10.3972 25.1314C10.7238 24.9146 11.4144 24.3929 11.5637 24.04C11.6478 23.8412 11.5945 23.6848 11.5383 23.5199C11.4698 23.3188 11.397 23.1049 11.5637 22.7861C11.8669 22.2056 13.6633 20.9051 13.99 20.8819C14.0158 20.88 14.0417 20.8785 14.0678 20.8769C14.3719 20.8588 14.6942 20.8396 15.0165 20.3478C15.1177 20.1933 15.2803 19.7637 15.4798 19.2367C15.831 18.3089 16.2965 17.079 16.7429 16.5162C17.3028 15.8104 18.0338 15.3397 18.3293 15.1927C18.3759 15.4016 18.2313 15.9357 18.1193 16.2143C18.0638 16.3526 17.7734 16.9109 17.4242 17.5821C16.893 18.6032 16.2259 19.8854 16.043 20.3478C15.9568 20.5656 15.9064 20.7233 15.8672 20.8462C15.7684 21.1554 15.7404 21.2429 15.3897 21.5089C15.0796 21.7441 14.9002 21.7613 14.7039 21.78C14.5901 21.7909 14.4706 21.8025 14.3166 21.8572C13.6633 22.0894 12.5668 23.0415 12.4502 23.3201C12.4005 23.4387 12.4143 23.6499 12.4285 23.8677C12.4476 24.1615 12.4675 24.4674 12.3335 24.574C11.6337 25.1314 11.0038 25.1314 10.3972 25.1314Z" fill="white"/>
<path d="M32.3215 7.78904C32.4039 8.2545 32.1575 8.68668 31.7712 8.75435C31.3849 8.82203 31.005 8.49956 30.9227 8.03411C30.8403 7.56866 31.0868 7.13647 31.4731 7.0688C31.8593 7.00113 32.2393 7.32359 32.3215 7.78904Z" fill="white"/>
<path d="M0 52.4479H5.73993C6.64325 52.4479 7.50505 52.5519 8.32539 52.7599C9.14808 52.9679 9.87714 53.4465 10.5125 54.1959C11.1479 54.9451 11.4656 56.0514 11.4656 57.5144C11.4656 59.2138 10.9512 60.5116 9.92218 61.4074C9.60924 61.6863 9.27137 61.9073 8.90863 62.0704C8.54825 62.2335 8.16299 62.3552 7.75282 62.4357C7.34265 62.5137 6.93841 62.5632 6.54012 62.5845C6.14418 62.6034 5.65931 62.6128 5.08557 62.6128H0V60.755H0.483663C0.751577 60.755 0.919904 60.7042 0.98867 60.6026C1.05979 60.501 1.09535 60.358 1.09535 60.1736V54.8872C1.09535 54.7029 1.06097 54.5599 0.992223 54.4583C0.923457 54.3567 0.753952 54.3057 0.483663 54.3057H0V52.4479ZM4.66237 55.2347V59.8545C4.66237 60.0979 4.70978 60.2503 4.80461 60.3118C4.89944 60.3732 5.05593 60.404 5.27405 60.404H5.75416C6.02444 60.404 6.25323 60.3651 6.44054 60.2871C6.6302 60.2066 6.79617 59.9916 6.93841 59.6418C7.08068 59.2918 7.1518 58.753 7.1518 58.025V57.05C7.1518 56.3244 7.08185 55.7867 6.94198 55.4368C6.80209 55.0846 6.63612 54.866 6.44409 54.7809C6.25441 54.6958 6.02444 54.6532 5.75416 54.6532H5.27405C4.99902 54.6532 4.82832 54.7005 4.76195 54.7951C4.69555 54.8897 4.66237 55.0362 4.66237 55.2347Z" fill="white"/>
<path d="M12.2338 62.6128V60.755H12.657C12.887 60.755 13.0316 60.709 13.0909 60.6168C13.1525 60.5246 13.1833 60.3768 13.1833 60.1736V54.8872C13.1833 54.6839 13.1537 54.5363 13.0944 54.4441C13.0351 54.3519 12.8893 54.3057 12.657 54.3057H12.2338V52.4479H17.7105V54.3057H17.2767C17.0728 54.3057 16.9341 54.346 16.8606 54.4263C16.787 54.5066 16.7504 54.6603 16.7504 54.8872V60.1736C16.7504 60.3981 16.787 60.5518 16.8606 60.6344C16.9341 60.7149 17.0728 60.755 17.2767 60.755H17.7105V62.6128H12.2338Z" fill="white"/>
<path d="M29.4714 56.0041H25.8012C25.7491 54.9311 25.2441 54.3944 24.2863 54.3944C23.9496 54.3944 23.6794 54.4548 23.4755 54.5752C23.2739 54.6958 23.1102 54.9842 22.9846 55.4404C22.8614 55.8941 22.7998 56.595 22.7998 57.5428C22.7998 58.4055 22.8542 59.0604 22.9633 59.507C23.0724 59.9513 23.2418 60.2539 23.4719 60.4146C23.7042 60.5731 24.0243 60.6522 24.432 60.6522C24.8494 60.6522 25.1955 60.5967 25.4705 60.4855C25.7479 60.3745 25.8866 60.2079 25.8866 59.9856V59.9112C25.8866 59.6985 25.8475 59.5484 25.7693 59.461C25.6934 59.3734 25.5049 59.3297 25.2037 59.3297H24.8837V57.4719H30.2146V59.3297C29.9277 59.3439 29.7298 59.3937 29.6207 59.4787C29.5116 59.5614 29.4572 59.715 29.4572 59.9396V62.6128H27.5795L27.3731 61.8435H27.2878C26.8374 62.2193 26.388 62.4829 25.94 62.6341C25.4919 62.7855 24.9501 62.861 24.3147 62.861C23.6674 62.861 23.0522 62.802 22.469 62.6839C21.8881 62.5655 21.3523 62.3778 20.8614 62.12C20.3732 61.8624 19.9606 61.5326 19.6239 61.1308C18.8675 60.2327 18.4894 59.0367 18.4894 57.5428C18.4894 57.1292 18.5369 56.7131 18.6317 56.2948C18.7288 55.8741 18.8711 55.4687 19.0584 55.0787C19.2458 54.6887 19.4638 54.3435 19.7128 54.0435C20.737 52.8048 22.1691 52.1855 24.0089 52.1855C24.841 52.1855 25.5938 52.2706 26.2672 52.4408C26.9429 52.6087 27.519 52.858 27.9954 53.1889C28.4721 53.5174 28.8372 53.9205 29.0908 54.3979C29.3445 54.8731 29.4714 55.4084 29.4714 56.0041Z" fill="white"/>
<path d="M30.7268 62.6128V60.755H31.1499C31.38 60.755 31.5246 60.709 31.5838 60.6168C31.6454 60.5246 31.6763 60.3768 31.6763 60.1736V54.8872C31.6763 54.6839 31.6467 54.5363 31.5874 54.4441C31.5281 54.3519 31.3823 54.3057 31.1499 54.3057H30.7268V52.4479H36.2036V54.3057H35.7696C35.5657 54.3057 35.427 54.346 35.3535 54.4263C35.2801 54.5066 35.2433 54.6603 35.2433 54.8872V60.1736C35.2433 60.3981 35.2801 60.5518 35.3535 60.6344C35.427 60.7149 35.5657 60.755 35.7696 60.755H36.2036V62.6128H30.7268Z" fill="white"/>
<path d="M39.3118 62.6128V60.755H39.9661C40.208 60.755 40.3704 60.7149 40.4533 60.6344C40.5363 60.5518 40.5779 60.3981 40.5779 60.1736V54.6532H39.9661C39.7077 54.6532 39.5157 54.6697 39.39 54.7029C39.2643 54.736 39.1836 54.7832 39.1481 54.8447C39.1126 54.9062 39.0794 55.0078 39.0485 55.1496L38.8601 56.0041H36.9823L37.0819 52.4479H47.6442L47.7474 56.0041H45.866L45.6776 55.1496C45.6325 54.9392 45.5614 54.8046 45.4641 54.7454C45.3693 54.6839 45.1346 54.6532 44.7601 54.6532H44.1483V60.1736C44.1483 60.358 44.1827 60.501 44.2514 60.6026C44.3202 60.7042 44.485 60.755 44.7458 60.755H45.4002V62.6128H39.3118Z" fill="white"/>
<path d="M50.2119 52.4479H56.3039L58.7223 59.8829C58.7886 60.1027 58.8478 60.2681 58.9001 60.3793C58.9523 60.4903 59.0328 60.5813 59.1419 60.6522C59.2533 60.7207 59.4039 60.755 59.5935 60.755H59.8425V62.6128H54.4084V60.755H54.8317C55.1326 60.755 55.2833 60.677 55.2833 60.521C55.2833 60.4383 55.2442 60.3024 55.1658 60.1133H51.6274L51.5847 60.2906C51.5919 60.3686 51.6274 60.4654 51.6913 60.5813C51.7554 60.6971 51.8691 60.755 52.0328 60.755H52.2106V62.6128H48.0141V60.755H48.2773C48.5951 60.755 48.8107 60.6948 48.9246 60.5742C49.0406 60.4512 49.164 60.2114 49.2943 59.8545L51.0868 54.99C51.0915 54.9735 51.0976 54.9534 51.1045 54.9298C51.114 54.9039 51.1236 54.8754 51.1331 54.8447C51.1472 54.8163 51.1568 54.7951 51.1615 54.7809C51.1663 54.7667 51.1709 54.7538 51.1757 54.7418C51.2136 54.6662 51.2327 54.5942 51.2327 54.5256C51.2327 54.3791 51.1022 54.3057 50.8414 54.3057H50.2119V52.4479ZM53.4481 55.0751L52.3991 57.9081H54.4511L53.5336 55.0751H53.4481Z" fill="white"/>
<path d="M60.5359 62.6128V60.755H61.0161C61.2578 60.755 61.4203 60.7149 61.5033 60.6344C61.5863 60.5518 61.6277 60.3981 61.6277 60.1736V54.8872C61.6277 54.6603 61.5863 54.5066 61.5033 54.4263C61.4203 54.346 61.2578 54.3057 61.0161 54.3057H60.5359V52.4479H66.3328V54.3057H65.7069C65.3654 54.3057 65.1947 54.4121 65.1947 54.625V60.404H66.6529C66.7454 60.404 66.8389 60.4075 66.9339 60.4146C67.031 60.4194 67.1022 60.4217 67.1472 60.4217C67.4387 60.4217 67.651 60.3402 67.7838 60.1771C67.9166 60.014 68.0352 59.6393 68.1394 59.0532H70.003V62.6128H60.5359Z" fill="white"/>
<path d="M17.395 68.8356H21.8548C22.8695 68.8356 23.71 68.8651 24.3762 68.9241C25.0425 68.981 25.6339 69.1062 26.1507 69.3C26.67 69.4915 27.0742 69.7916 27.3636 70.2006C27.6528 70.6095 27.7974 71.1519 27.7974 71.8279C27.7974 72.3456 27.6505 72.7958 27.3564 73.1788C27.0624 73.5594 26.6948 73.8489 26.2539 74.0474L27.1715 75.5294C27.2213 75.6097 27.3161 75.7693 27.4561 76.008C27.5958 76.2445 27.7156 76.4252 27.8152 76.5506C27.9147 76.6733 28.038 76.7856 28.185 76.8874C28.3321 76.9866 28.5134 77.0717 28.7291 77.1425V79.0005H23.3413V77.1425C23.5902 77.1049 23.7562 77.0681 23.8392 77.0328C23.9246 76.9972 23.9672 76.9075 23.9672 76.7632C23.9672 76.6428 23.8699 76.4252 23.6755 76.1109L23.0034 75.0082H22.0431V76.5612C22.0431 76.7409 22.0753 76.8826 22.1392 76.9866C22.2056 77.0907 22.3632 77.1425 22.6123 77.1425V79.0005H17.395V77.1425H17.8788C18.1371 77.1425 18.3008 77.0907 18.3696 76.9866C18.4383 76.8826 18.4727 76.7409 18.4727 76.5612V71.2749C18.4727 71.0953 18.4383 70.9533 18.3696 70.8494C18.3031 70.7454 18.1396 70.6934 17.8788 70.6934H17.395V68.8356ZM22.0431 70.9416V72.9731H22.6123C23.4183 72.9731 23.8214 72.6103 23.8214 71.8846C23.8214 71.4994 23.6886 71.2464 23.4231 71.126C23.1575 71.003 22.8044 70.9416 22.3632 70.9416H22.0431Z" fill="white"/>
<path d="M29.4155 79.0005V77.1425H29.9134C30.1813 77.1425 30.3474 77.0978 30.4113 77.0079C30.4777 76.918 30.5109 76.7691 30.5109 76.5612V71.2749C30.5109 71.0668 30.4789 70.9179 30.4148 70.828C30.3533 70.7383 30.1908 70.6934 29.9277 70.6934H29.4155V68.8356H38.4913V72.101H36.6277C36.597 71.881 36.5579 71.6684 36.5104 71.4628C36.4654 71.283 36.3896 71.1684 36.2828 71.1189C36.1761 71.0668 35.9461 71.0409 35.5928 71.0409H34.0779V72.7427H36.4072V74.9479H34.0779V76.7917H35.5039C35.8856 76.7917 36.1525 76.7538 36.3042 76.6781C36.4558 76.6001 36.5733 76.4594 36.6563 76.2562C36.7393 76.0672 36.7878 75.878 36.8019 75.6889H38.6798L38.5945 79.0005H29.4155Z" fill="white"/>
<path d="M45.5009 68.8356V70.6934H45.3088C45.1453 70.6934 45.0633 70.7666 45.0633 70.9131C45.0633 70.984 45.1121 71.0752 45.2092 71.1862L45.8636 72.0441H46.0236L46.6921 71.1862C46.8298 71.0041 46.8985 70.8931 46.8985 70.8529C46.8985 70.7465 46.806 70.6934 46.6211 70.6934H46.4042V68.8356H51.1377V70.6934H50.7287C50.4702 70.6934 50.2486 70.763 50.0637 70.9025C49.881 71.0396 49.6167 71.3234 49.2705 71.7535L48.0044 73.3666L50.1028 76.1533C50.1312 76.1912 50.1572 76.2232 50.181 76.2491C50.207 76.2752 50.2249 76.2964 50.2343 76.3131C50.2652 76.3436 50.347 76.4454 50.4796 76.6179C50.7524 76.9677 51.0345 77.1425 51.3262 77.1425H51.8062V79.0005H45.7604V77.1425C46.0805 77.1308 46.2405 77.048 46.2405 76.8943C46.2405 76.8069 46.1587 76.6522 45.9952 76.43L45.3834 75.6038H45.2234L44.4801 76.5328C44.3735 76.6675 44.3201 76.7975 44.3201 76.9228C44.3201 77.048 44.4849 77.1214 44.8145 77.1425V79.0005H39.7147V77.1425H40.1842C40.4686 77.1425 40.7069 77.0823 40.899 76.9619C41.0909 76.8412 41.3624 76.5577 41.7134 76.1109L43.1821 74.2211L41.2012 71.5797C41.1917 71.5655 41.1502 71.5124 41.0768 71.4202C41.0032 71.328 40.9286 71.2312 40.8527 71.1295C40.7554 70.9853 40.6535 70.8766 40.5469 70.8034C40.4402 70.73 40.28 70.6934 40.0667 70.6934H39.7004V68.8356H45.5009Z" fill="white"/>
</svg>
