<svg width="20" height="20" viewBox="0 0 20 20" fill="none" xmlns="http://www.w3.org/2000/svg">
<path d="M5.83334 0H3.33333C2.44928 0 1.60143 0.35119 0.976311 0.976311C0.35119 1.60143 0 2.44928 0 3.33333V5.83334C0 6.71739 0.35119 7.56524 0.976311 8.19036C1.60143 8.81548 2.44928 9.16667 3.33333 9.16667H5.83334C6.71739 9.16667 7.56524 8.81548 8.19036 8.19036C8.81548 7.56524 9.16667 6.71739 9.16667 5.83334V3.33333C9.16667 2.44928 8.81548 1.60143 8.19036 0.976311C7.56524 0.35119 6.71739 0 5.83334 0ZM7.5 5.83334C7.5 6.27536 7.32441 6.69929 7.01185 7.01185C6.69929 7.32441 6.27536 7.5 5.83334 7.5H3.33333C2.89131 7.5 2.46738 7.32441 2.15482 7.01185C1.84226 6.69929 1.66667 6.27536 1.66667 5.83334V3.33333C1.66667 2.89131 1.84226 2.46738 2.15482 2.15482C2.46738 1.84226 2.89131 1.66667 3.33333 1.66667H5.83334C6.27536 1.66667 6.69929 1.84226 7.01185 2.15482C7.32441 2.46738 7.5 2.89131 7.5 3.33333V5.83334Z" fill="white"/>
<path d="M16.6657 0H14.1657C13.2817 0 12.4338 0.35119 11.8087 0.976311C11.1836 1.60143 10.8324 2.44928 10.8324 3.33333V5.83334C10.8324 6.71739 11.1836 7.56524 11.8087 8.19036C12.4338 8.81548 13.2817 9.16667 14.1657 9.16667H16.6657C17.5498 9.16667 18.3976 8.81548 19.0228 8.19036C19.6479 7.56524 19.9991 6.71739 19.9991 5.83334V3.33333C19.9991 2.44928 19.6479 1.60143 19.0228 0.976311C18.3976 0.35119 17.5498 0 16.6657 0ZM18.3324 5.83334C18.3324 6.27536 18.1568 6.69929 17.8443 7.01185C17.5317 7.32441 17.1078 7.5 16.6657 7.5H14.1657C13.7237 7.5 13.2998 7.32441 12.9872 7.01185C12.6747 6.69929 12.4991 6.27536 12.4991 5.83334V3.33333C12.4991 2.89131 12.6747 2.46738 12.9872 2.15482C13.2998 1.84226 13.7237 1.66667 14.1657 1.66667H16.6657C17.1078 1.66667 17.5317 1.84226 17.8443 2.15482C18.1568 2.46738 18.3324 2.89131 18.3324 3.33333V5.83334Z" fill="white"/>
<path d="M5.83334 10.8333H3.33333C2.44928 10.8333 1.60143 11.1845 0.976311 11.8096C0.35119 12.4348 0 13.2826 0 14.1667V16.6667C0 17.5507 0.35119 18.3986 0.976311 19.0237C1.60143 19.6488 2.44928 20 3.33333 20H5.83334C6.71739 20 7.56524 19.6488 8.19036 19.0237C8.81548 18.3986 9.16667 17.5507 9.16667 16.6667V14.1667C9.16667 13.2826 8.81548 12.4348 8.19036 11.8096C7.56524 11.1845 6.71739 10.8333 5.83334 10.8333ZM7.5 16.6667C7.5 17.1087 7.32441 17.5326 7.01185 17.8452C6.69929 18.1577 6.27536 18.3333 5.83334 18.3333H3.33333C2.89131 18.3333 2.46738 18.1577 2.15482 17.8452C1.84226 17.5326 1.66667 17.1087 1.66667 16.6667V14.1667C1.66667 13.7246 1.84226 13.3007 2.15482 12.9882C2.46738 12.6756 2.89131 12.5 3.33333 12.5H5.83334C6.27536 12.5 6.69929 12.6756 7.01185 12.9882C7.32441 13.3007 7.5 13.7246 7.5 14.1667V16.6667Z" fill="white"/>
<path d="M16.6657 10.8333H14.1657C13.2817 10.8333 12.4338 11.1845 11.8087 11.8096C11.1836 12.4348 10.8324 13.2826 10.8324 14.1667V16.6667C10.8324 17.5507 11.1836 18.3986 11.8087 19.0237C12.4338 19.6488 13.2817 20 14.1657 20H16.6657C17.5498 20 18.3976 19.6488 19.0228 19.0237C19.6479 18.3986 19.9991 17.5507 19.9991 16.6667V14.1667C19.9991 13.2826 19.6479 12.4348 19.0228 11.8096C18.3976 11.1845 17.5498 10.8333 16.6657 10.8333ZM18.3324 16.6667C18.3324 17.1087 18.1568 17.5326 17.8443 17.8452C17.5317 18.1577 17.1078 18.3333 16.6657 18.3333H14.1657C13.7237 18.3333 13.2998 18.1577 12.9872 17.8452C12.6747 17.5326 12.4991 17.1087 12.4991 16.6667V14.1667C12.4991 13.7246 12.6747 13.3007 12.9872 12.9882C13.2998 12.6756 13.7237 12.5 14.1657 12.5H16.6657C17.1078 12.5 17.5317 12.6756 17.8443 12.9882C18.1568 13.3007 18.3324 13.7246 18.3324 14.1667V16.6667Z" fill="white"/>
</svg>
