<svg width="19" height="20" viewBox="0 0 19 20" fill="none" xmlns="http://www.w3.org/2000/svg">
<path d="M17.9722 11.3818L16.3891 5.6858C15.925 4.0171 14.9165 2.55139 13.5239 1.52166C12.1312 0.491935 10.4343 -0.0427253 8.70284 0.00266955C6.97142 0.0480644 5.30485 0.67091 3.96805 1.7722C2.63125 2.87349 1.70093 4.39003 1.32497 6.08075L0.0992736 11.5926C-0.0361147 12.2017 -0.0329845 12.8333 0.108433 13.441C0.249851 14.0487 0.525945 14.6168 0.916332 15.1035C1.30672 15.5902 1.80143 15.983 2.36394 16.2529C2.92645 16.5228 3.5424 16.6629 4.16631 16.6629H5.09453C5.28578 17.6047 5.79673 18.4514 6.54082 19.0596C7.28491 19.6678 8.21638 20 9.1774 20C10.1384 20 11.0699 19.6678 11.814 19.0596C12.5581 18.4514 13.069 17.6047 13.2603 16.6629H13.9585C14.6008 16.6629 15.2344 16.5145 15.8098 16.2291C16.3852 15.9438 16.8868 15.5293 17.2755 15.0179C17.6642 14.5066 17.9294 13.9124 18.0504 13.2816C18.1714 12.6509 18.1449 12.0007 17.9731 11.3818H17.9722ZM9.1774 18.3293C8.66224 18.3272 8.16033 18.166 7.74032 17.8677C7.32031 17.5694 7.00272 17.1486 6.831 16.6629H11.5238C11.3521 17.1486 11.0345 17.5694 10.6145 17.8677C10.1945 18.166 9.69256 18.3272 9.1774 18.3293ZM15.9483 14.009C15.7161 14.317 15.4153 14.5667 15.0697 14.7381C14.7242 14.9095 14.3434 14.9979 13.9577 14.9964H4.16631C3.792 14.9963 3.42249 14.9122 3.08505 14.7502C2.7476 14.5883 2.45084 14.3526 2.21667 14.0606C1.98249 13.7686 1.81688 13.4277 1.73205 13.0632C1.64723 12.6986 1.64536 12.3196 1.72659 11.9542L2.95145 6.44154C3.24671 5.11353 3.97742 3.92233 5.02742 3.0573C6.07743 2.19228 7.38646 1.70306 8.74643 1.66743C10.1064 1.63181 11.4392 2.05181 12.5331 2.86068C13.627 3.66954 14.419 4.82085 14.7834 6.13158L16.3666 11.8276C16.4712 12.1987 16.4878 12.5891 16.4152 12.9677C16.3426 13.3464 16.1827 13.7029 15.9483 14.009Z" fill="#BCBCBC"/>
</svg>
