<svg width="17" height="20" viewBox="0 0 17 20" fill="none" xmlns="http://www.w3.org/2000/svg">
<path d="M12.5 11.6667C12.5 11.8877 12.4122 12.0996 12.2559 12.2559C12.0996 12.4122 11.8877 12.5 11.6667 12.5H4.99999C4.77898 12.5 4.56702 12.4122 4.41074 12.2559C4.25446 12.0996 4.16666 11.8877 4.16666 11.6667C4.16666 11.4457 4.25446 11.2337 4.41074 11.0774C4.56702 10.9211 4.77898 10.8333 4.99999 10.8333H11.6667C11.8877 10.8333 12.0996 10.9211 12.2559 11.0774C12.4122 11.2337 12.5 11.4457 12.5 11.6667ZM9.16666 14.1667H4.99999C4.77898 14.1667 4.56702 14.2545 4.41074 14.4107C4.25446 14.567 4.16666 14.779 4.16666 15C4.16666 15.221 4.25446 15.433 4.41074 15.5893C4.56702 15.7455 4.77898 15.8333 4.99999 15.8333H9.16666C9.38767 15.8333 9.59963 15.7455 9.75591 15.5893C9.91219 15.433 9.99999 15.221 9.99999 15C9.99999 14.779 9.91219 14.567 9.75591 14.4107C9.59963 14.2545 9.38767 14.1667 9.16666 14.1667ZM16.6666 8.73751V15.8333C16.6653 16.938 16.2259 17.997 15.4448 18.7782C14.6637 19.5593 13.6046 19.9987 12.5 20H4.16666C3.062 19.9987 2.00296 19.5593 1.22185 18.7782C0.440735 17.997 0.00132321 16.938 0 15.8333V4.16668C0.00132321 3.06202 0.440735 2.00298 1.22185 1.22187C2.00296 0.440754 3.062 0.00134242 4.16666 1.92072e-05H7.92916C8.69551 -0.00195323 9.45464 0.148009 10.1627 0.441235C10.8707 0.734461 11.5136 1.16513 12.0542 1.70835L14.9575 4.61335C15.501 5.15355 15.932 5.79623 16.2253 6.50416C16.5187 7.21209 16.6687 7.9712 16.6666 8.73751ZM10.8758 2.88668C10.6136 2.63265 10.3191 2.41412 9.99999 2.23668V5.83335C9.99999 6.05436 10.0878 6.26632 10.2441 6.4226C10.4003 6.57888 10.6123 6.66668 10.8333 6.66668H14.43C14.2524 6.34767 14.0336 6.05347 13.7792 5.79168L10.8758 2.88668ZM15 8.73751C15 8.60001 14.9733 8.46834 14.9608 8.33334H10.8333C10.1703 8.33334 9.5344 8.06995 9.06556 7.60111C8.59672 7.13227 8.33332 6.49639 8.33332 5.83335V1.70585C8.19833 1.69335 8.06583 1.66668 7.92916 1.66668H4.16666C3.50362 1.66668 2.86774 1.93008 2.3989 2.39892C1.93006 2.86776 1.66666 3.50364 1.66666 4.16668V15.8333C1.66666 16.4964 1.93006 17.1323 2.3989 17.6011C2.86774 18.0699 3.50362 18.3333 4.16666 18.3333H12.5C13.163 18.3333 13.7989 18.0699 14.2678 17.6011C14.7366 17.1323 15 16.4964 15 15.8333V8.73751Z" fill="white"/>
</svg>
