<svg width="22" height="22" viewBox="0 0 22 22" fill="none" xmlns="http://www.w3.org/2000/svg">
<path d="M18.5954 21.01C19.9572 21.01 21.0651 19.8968 21.0651 18.5285V15.2198C21.0651 14.864 20.8376 14.5481 20.5001 14.4353L15.5489 12.781C15.3065 12.7 15.0405 12.7356 14.8279 12.8773L12.7224 14.281C10.4626 13.2087 7.79184 10.5616 6.72954 8.34202L8.13274 6.23721C8.27441 6.02469 8.30998 5.75856 8.22903 5.51626L6.5747 0.565009C6.46193 0.227526 6.146 0 5.79016 0H2.4815C1.1132 0 0 1.10791 0 2.46975C0 7.03995 2.07806 11.7305 5.70138 15.3386C9.32072 18.9429 14.0205 21.01 18.5954 21.01ZM2.4815 1.65433H5.19443L6.53168 5.65649L5.10196 7.80105C4.95086 8.0277 4.92103 8.31417 5.02222 8.56706C5.57228 9.9422 6.67307 11.4888 8.12177 12.9221C9.56093 14.3459 11.1151 15.4346 12.4981 15.9878C12.7509 16.0889 13.0375 16.0591 13.2641 15.908L15.4087 14.4783L19.4108 15.8156V18.5285C19.4108 18.9923 19.0527 19.3557 18.5954 19.3557C9.88738 19.3557 1.65433 11.1494 1.65433 2.46975C1.65433 2.01249 2.01768 1.65433 2.4815 1.65433Z" fill="#FF5F46"/>
</svg>
