<svg width="20" height="15" viewBox="0 0 20 15" fill="none" xmlns="http://www.w3.org/2000/svg">
<path d="M5.83333 2.50001H19.1667C19.3877 2.50001 19.5996 2.41221 19.7559 2.25593C19.9122 2.09965 20 1.88769 20 1.66667C20 1.44566 19.9122 1.2337 19.7559 1.07742C19.5996 0.921138 19.3877 0.833341 19.1667 0.833341H5.83333C5.61232 0.833341 5.40036 0.921138 5.24408 1.07742C5.0878 1.2337 5 1.44566 5 1.66667C5 1.88769 5.0878 2.09965 5.24408 2.25593C5.40036 2.41221 5.61232 2.50001 5.83333 2.50001Z" fill="white"/>
<path d="M19.1667 6.66666H5.83333C5.61232 6.66666 5.40036 6.75446 5.24408 6.91074C5.0878 7.06702 5 7.27898 5 7.49999C5 7.72101 5.0878 7.93297 5.24408 8.08925C5.40036 8.24553 5.61232 8.33333 5.83333 8.33333H19.1667C19.3877 8.33333 19.5996 8.24553 19.7559 8.08925C19.9122 7.93297 20 7.72101 20 7.49999C20 7.27898 19.9122 7.06702 19.7559 6.91074C19.5996 6.75446 19.3877 6.66666 19.1667 6.66666Z" fill="white"/>
<path d="M19.1667 12.5H5.83333C5.61232 12.5 5.40036 12.5878 5.24408 12.7441C5.0878 12.9004 5 13.1123 5 13.3333C5 13.5543 5.0878 13.7663 5.24408 13.9226C5.40036 14.0789 5.61232 14.1667 5.83333 14.1667H19.1667C19.3877 14.1667 19.5996 14.0789 19.7559 13.9226C19.9122 13.7663 20 13.5543 20 13.3333C20 13.1123 19.9122 12.9004 19.7559 12.7441C19.5996 12.5878 19.3877 12.5 19.1667 12.5Z" fill="white"/>
<path d="M1.66667 3.33333C2.58714 3.33333 3.33333 2.58714 3.33333 1.66667C3.33333 0.746192 2.58714 0 1.66667 0C0.746192 0 0 0.746192 0 1.66667C0 2.58714 0.746192 3.33333 1.66667 3.33333Z" fill="white"/>
<path d="M1.66667 9.16667C2.58714 9.16667 3.33333 8.42048 3.33333 7.50001C3.33333 6.57953 2.58714 5.83334 1.66667 5.83334C0.746192 5.83334 0 6.57953 0 7.50001C0 8.42048 0.746192 9.16667 1.66667 9.16667Z" fill="white"/>
<path d="M1.66667 15C2.58714 15 3.33333 14.2538 3.33333 13.3333C3.33333 12.4129 2.58714 11.6667 1.66667 11.6667C0.746192 11.6667 0 12.4129 0 13.3333C0 14.2538 0.746192 15 1.66667 15Z" fill="white"/>
</svg>
