<svg width="20" height="20" viewBox="0 0 20 20" fill="none" xmlns="http://www.w3.org/2000/svg">
<path d="M19.1667 18.3333H2.5C2.27899 18.3333 2.06702 18.2455 1.91074 18.0893C1.75446 17.933 1.66667 17.721 1.66667 17.5V0.833333C1.66667 0.61232 1.57887 0.400358 1.42259 0.244078C1.26631 0.0877974 1.05435 0 0.833333 0C0.61232 0 0.400358 0.0877974 0.244078 0.244078C0.0877974 0.400358 0 0.61232 0 0.833333L0 17.5C0 18.163 0.263392 18.7989 0.732233 19.2678C1.20107 19.7366 1.83696 20 2.5 20H19.1667C19.3877 20 19.5996 19.9122 19.7559 19.7559C19.9122 19.5996 20 19.3877 20 19.1667C20 18.9457 19.9122 18.7337 19.7559 18.5774C19.5996 18.4211 19.3877 18.3333 19.1667 18.3333Z" fill="white"/>
<path d="M12.5013 16.6667C12.7223 16.6667 12.9343 16.5789 13.0906 16.4226C13.2468 16.2663 13.3346 16.0543 13.3346 15.8333V9.99999C13.3346 9.77898 13.2468 9.56701 13.0906 9.41073C12.9343 9.25445 12.7223 9.16666 12.5013 9.16666C12.2803 9.16666 12.0683 9.25445 11.912 9.41073C11.7558 9.56701 11.668 9.77898 11.668 9.99999V15.8333C11.668 16.0543 11.7558 16.2663 11.912 16.4226C12.0683 16.5789 12.2803 16.6667 12.5013 16.6667Z" fill="white"/>
<path d="M5.83333 16.6667C6.05435 16.6667 6.26631 16.5789 6.42259 16.4226C6.57887 16.2663 6.66667 16.0543 6.66667 15.8333V9.99999C6.66667 9.77898 6.57887 9.56701 6.42259 9.41073C6.26631 9.25445 6.05435 9.16666 5.83333 9.16666C5.61232 9.16666 5.40036 9.25445 5.24408 9.41073C5.0878 9.56701 5 9.77898 5 9.99999V15.8333C5 16.0543 5.0878 16.2663 5.24408 16.4226C5.40036 16.5789 5.61232 16.6667 5.83333 16.6667Z" fill="white"/>
<path d="M15.8333 16.6667C16.0543 16.6667 16.2663 16.5789 16.4226 16.4226C16.5789 16.2663 16.6667 16.0543 16.6667 15.8333V5.83333C16.6667 5.61232 16.5789 5.40036 16.4226 5.24408C16.2663 5.0878 16.0543 5 15.8333 5C15.6123 5 15.4004 5.0878 15.2441 5.24408C15.0878 5.40036 15 5.61232 15 5.83333V15.8333C15 16.0543 15.0878 16.2663 15.2441 16.4226C15.4004 16.5789 15.6123 16.6667 15.8333 16.6667Z" fill="white"/>
<path d="M9.16536 16.6667C9.38638 16.6667 9.59834 16.5789 9.75462 16.4226C9.9109 16.2663 9.9987 16.0543 9.9987 15.8333V5.83333C9.9987 5.61232 9.9109 5.40036 9.75462 5.24408C9.59834 5.0878 9.38638 5 9.16536 5C8.94435 5 8.73239 5.0878 8.57611 5.24408C8.41983 5.40036 8.33203 5.61232 8.33203 5.83333V15.8333C8.33203 16.0543 8.41983 16.2663 8.57611 16.4226C8.73239 16.5789 8.94435 16.6667 9.16536 16.6667Z" fill="white"/>
</svg>
