<svg width="20" height="15" viewBox="0 0 20 15" fill="none" xmlns="http://www.w3.org/2000/svg">
<path d="M15.8333 0H4.16667C3.062 0.00132321 2.00296 0.440735 1.22185 1.22185C0.440735 2.00296 0.00132321 3.062 0 4.16667V10.8333C0.00132321 11.938 0.440735 12.997 1.22185 13.7782C2.00296 14.5593 3.062 14.9987 4.16667 15H15.8333C16.938 14.9987 17.997 14.5593 18.7782 13.7782C19.5593 12.997 19.9987 11.938 20 10.8333V4.16667C19.9987 3.062 19.5593 2.00296 18.7782 1.22185C17.997 0.440735 16.938 0.00132321 15.8333 0ZM18.3333 10.8333C18.3333 11.4964 18.0699 12.1323 17.6011 12.6011C17.1323 13.0699 16.4964 13.3333 15.8333 13.3333H4.16667C3.50363 13.3333 2.86774 13.0699 2.3989 12.6011C1.93006 12.1323 1.66667 11.4964 1.66667 10.8333V4.16667C1.66667 3.50363 1.93006 2.86774 2.3989 2.3989C2.86774 1.93006 3.50363 1.66667 4.16667 1.66667H15.8333C16.4964 1.66667 17.1323 1.93006 17.6011 2.3989C18.0699 2.86774 18.3333 3.50363 18.3333 4.16667V10.8333Z" fill="#BCBCBC"/>
<path d="M7.11767 9.16665C6.78512 9.16665 6.50949 9.09511 6.29078 8.95204C6.07208 8.80897 5.91929 8.61566 5.8324 8.37213L6.51997 7.96574C6.63682 8.24884 6.84354 8.3904 7.14014 8.3904C7.38581 8.3904 7.50864 8.31886 7.50864 8.17578C7.50864 8.08142 7.43824 8.00531 7.29743 7.94747C7.23751 7.92312 7.10568 7.88202 6.90196 7.82419C6.61435 7.73895 6.38666 7.62023 6.21888 7.46802C6.05111 7.31277 5.96722 7.09816 5.96722 6.82419C5.96722 6.5289 6.07058 6.28994 6.2773 6.10729C6.48702 5.92464 6.74767 5.83332 7.05925 5.83332C7.32289 5.83332 7.55658 5.89572 7.7603 6.02053C7.96403 6.14534 8.11982 6.32647 8.22767 6.56391L7.55358 6.96574C7.45471 6.7283 7.29143 6.60957 7.06374 6.60957C6.96787 6.60957 6.89447 6.62936 6.84354 6.66894C6.7956 6.70851 6.77164 6.75874 6.77164 6.81962C6.77164 6.88964 6.80759 6.949 6.87949 6.9977C6.95439 7.04641 7.09819 7.10273 7.31091 7.16665C7.4637 7.21231 7.58654 7.25493 7.67941 7.29451C7.77228 7.33408 7.87415 7.39192 7.985 7.46802C8.09585 7.54108 8.17824 7.63697 8.23216 7.75569C8.28609 7.87137 8.31306 8.00836 8.31306 8.16665C8.31306 8.4802 8.2037 8.72525 7.985 8.90181C7.76629 9.07837 7.47718 9.16665 7.11767 9.16665Z" fill="#BCBCBC"/>
<path d="M9.40993 8.33104H10.6278V9.09816H8.60551V5.90181H10.6053V6.66437H9.40993V7.10729H10.493V7.86072H9.40993V8.33104Z" fill="#BCBCBC"/>
<path d="M13.6849 8.6872C13.3673 9.00683 12.9778 9.16665 12.5165 9.16665C12.0551 9.16665 11.6641 9.00683 11.3435 8.6872C11.026 8.36452 10.8672 7.96878 10.8672 7.49999C10.8672 7.03119 11.026 6.63697 11.3435 6.31734C11.6641 5.99466 12.0551 5.83332 12.5165 5.83332C12.9778 5.83332 13.3673 5.99466 13.6849 6.31734C14.0055 6.63697 14.1657 7.03119 14.1657 7.49999C14.1657 7.96878 14.0055 8.36452 13.6849 8.6872ZM11.9098 8.12556C12.0716 8.2869 12.2738 8.36757 12.5165 8.36757C12.7591 8.36757 12.9614 8.2869 13.1231 8.12556C13.2849 7.96117 13.3658 7.75265 13.3658 7.49999C13.3658 7.24732 13.2849 7.04032 13.1231 6.87898C12.9614 6.7146 12.7591 6.63241 12.5165 6.63241C12.2738 6.63241 12.0716 6.7146 11.9098 6.87898C11.748 7.04032 11.6671 7.24732 11.6671 7.49999C11.6671 7.75265 11.748 7.96117 11.9098 8.12556Z" fill="#BCBCBC"/>
</svg>
